<svg xmlns="http://www.w3.org/2000/svg" viewBox="0 0 693.79 693.79"><defs><style>.cls-1{fill:#fff;}.cls-2{fill:#00aab3;}</style></defs><g id="Layer_2" data-name="Layer 2"><g id="Layer_1-2" data-name="Layer 1"><circle class="cls-1" cx="346.89" cy="346.89" r="346.89"/><path class="cls-2" d="M438,327.08V155.15a29.27,29.27,0,0,0-3.28-13.74,27.9,27.9,0,0,0-3.09-4.66c-.6-.72-1.24-1.43-1.92-2.1s-1.38-1.31-2.1-1.91a28.2,28.2,0,0,0-12.57-5.84c-.93-.18-1.88-.32-2.84-.41s-2-.13-2.94-.13H392.75a28.69,28.69,0,0,0-20.55,8.29A27.9,27.9,0,0,0,366,144a29.69,29.69,0,0,0-2.12,11.2V221.7l0,0,.19.27.06.09h0c-.2-.1-.39-.17-.58-.25s-.38-.18-.59-.26q-2.87-1.19-5.82-2.24c-2-.7-3.94-1.35-5.93-1.93a43,43,0,0,0-4.47-1.27l-1.76-.43c-.58-.14-1.17-.28-1.75-.44-2.28-.54-4.59-1-6.91-1.44a121.41,121.41,0,0,0-21.53-1.91c-3.31,0-6.56.15-9.77.4-1.68.14-3.36.3-5,.51a122.55,122.55,0,0,0-19.45,4c-1.57.46-3.13.94-4.67,1.46q-4.63,1.55-9.11,3.43c-2.13.92-4.17,1.89-6.2,2.9q-5.38,2.65-10.45,5.81a122.3,122.3,0,0,0-18.87,14.44c-2.89,2.69-5.65,5.53-8.27,8.49a120.79,120.79,0,0,0-8.93,11.38,126.59,126.59,0,0,0-7.55,12.38q-2.37,4.57-4.43,9.31a122,122,0,0,0-9.77,48.06,112,112,0,0,0,.87,14.35c.2,1.42.35,2.9.56,4.32a105.6,105.6,0,0,0,2.44,12c.61,2.44,1.32,4.88,2.09,7.27.61,1.83,1.27,3.71,1.93,5.49q1.11,3,2.4,6a121.77,121.77,0,0,0,25.52,37.45c1.11,1.11,2.24,2.2,3.39,3.25a102.27,102.27,0,0,0,10.86,8.76c.63.46,1.27.9,1.9,1.35l1.91,1.34c1.48,1,3,2,4.58,2.9s3.31,2,5,2.9c.06.05.11.05.16.11,1.07.58,2.15,1.1,3.23,1.65s2.13,1.14,3.23,1.65c1.78.82,3.56,1.63,5.34,2.34a2.81,2.81,0,0,0,.56.26c1.47.61,2.95,1.17,4.42,1.73s2.9,1,4.38,1.47,3,1,4.53,1.39,3,.8,4.57,1.15c1,.28,2.07.47,3.12.68.53.11,1,.24,1.56.34,1.78.36,3.61.71,5.45,1l.3,0,.15,0c1.48.2,3,.41,4.48.56s3,.29,4.5.41c3,.24,6,.4,9.08.4q3.21,0,6.39-.16,5.55-.28,11-1.06a120.8,120.8,0,0,0,30.87-8.65v70.36L385,558.07a16.82,16.82,0,0,0,15.1,9.36A17.27,17.27,0,0,0,407,566a19.6,19.6,0,0,0,7.47-5.86,21.56,21.56,0,0,0,1.45-2l7.33-13.55,14.65-27.09V334.61c0-1.35,0-2.67,0-4s-.1-2.63-.17-3.95h0l.1.14Zm-64.7-115.83h22.74l.1,31a120.27,120.27,0,0,0-22.84-15.82ZM363.7,304a58.75,58.75,0,0,0-48.83-27C283.23,277.08,257,303.32,257,335s26.25,57.89,57.89,57.89a57.15,57.15,0,0,0,48.22-26.6v33.82a80.62,80.62,0,0,1-48.22,15.82c-44.61,0-81.28-36.67-81.28-81.28s36.67-81.29,81.28-81.29a81.79,81.79,0,0,1,81.29,81.29l0,25.43.2,65.82.1,64.61-23.7,17.24V360c0-10,1.07-20.49,0-30.39A59.47,59.47,0,0,0,363.7,304Zm-.88,30.56a51.93,51.93,0,0,1-6,22.44,48.25,48.25,0,0,1-42.67,25.74c-13.33.41-25.54-5.39-34.18-14a47.91,47.91,0,0,1-14-34.18,48.53,48.53,0,0,1,95.37-12.72A43.12,43.12,0,0,1,362.82,334.6Zm51,206.22a14.58,14.58,0,0,0-13.69-8.64,15,15,0,0,0-13.68,8.64l-12.21-23,26.25-19.07L426,517.78ZM427.8,360l-.05,22.08v.05l-.31,124.12-22.28-15.82V334.25a89.71,89.71,0,0,0-26.6-64,84.77,84.77,0,0,0-9.41-8.14,90.92,90.92,0,1,0-54.64,163.54c17.66-.36,34.19-4.68,48.58-14v25.18a109.53,109.53,0,0,1-48.22,10.78,112.93,112.93,0,1,1,57.48-210.08c1.07.61,2.09,1.22,3.1,1.88a111.72,111.72,0,0,1,19.28,15.42c.51.5,1,1,1.48,1.52a100.59,100.59,0,0,1,7.52,8.65,113.07,113.07,0,0,1,24.12,69.69Zm.91-72.69A120.21,120.21,0,0,0,405,250.83V211.25h23.7Zm0-85.45H373.32V175.29h55.39Zm0-36H373.32V155.15a19.62,19.62,0,0,1,19.43-19.43h16.53a19.64,19.64,0,0,1,19.43,19.43Z"/><path class="cls-2" d="M400.89,192.49a3.88,3.88,0,0,0,1.06.15,4,4,0,0,0,4-4.07,4,4,0,0,0-1-2.65,4.79,4.79,0,0,0-1.48-1.12,4.19,4.19,0,0,0-1.58-.3,4.07,4.07,0,0,0-1.06,8Z"/><path class="cls-2" d="M386.19,192.89a4.07,4.07,0,0,0,0-8.14,4.07,4.07,0,1,0,0,8.14Z"/><path class="cls-2" d="M416.35,193.1a4.07,4.07,0,1,0-4.12-4.07A4.13,4.13,0,0,0,416.35,193.1Z"/></g></g></svg>